<svg width="250.00000000000003" height="500.00000000000006" xmlns="http://www.w3.org/2000/svg" data-name="Layer 1">

 <g>
  <title>Layer 1</title>
  <path transform="rotate(45 126.559 115.429)" fill="#118879" stroke="null" id="svg_2" d="m194.04726,86.53128c-4.86867,-21.46276 -13.09038,-41.97485 -21.60846,-62.20891c-7.679,-17.31758 -14.74724,-35.13566 -25.02045,-51.11842c-5.0065,-8.19786 -15.71941,-14.32667 -23.64,-6.12488c-8.94022,12.20836 -13.68364,26.98784 -20.56345,40.39424c-15.20005,33.33676 -30.954,66.45053 -44.81482,100.37426c23.694,-29.83043 47.1108,-60.07436 66.18273,-93.13545q3.03361,-5.41791 5.904,-10.92962c-0.11844,0.38258 -0.25889,0.94753 -0.43184,1.77452c-11.46921,42.91453 -17.13526,87.37165 -17.99711,131.75465c0.18527,43.69618 5.425,87.2244 12.14626,130.34566c10.54756,-66.74375 16.27388,-134.4987 11.98353,-202.04822c-0.99469,-18.91733 -2.66545,-37.794 -4.70122,-56.62594c-0.38782,-1.60681 -0.29873,-5.80781 -0.69074,-5.79287q1.88589,-3.63264 3.64993,-7.32423c1.86965,3.21625 3.69841,6.45793 5.57932,9.6637c13.16821,23.26113 28.07766,45.45629 43.41213,67.32967q5.71388,8.30255 11.28127,16.70441c-0.22561,-1.00858 -0.43734,-2.02372 -0.67108,-3.03257z"/>
  <path transform="rotate(135 126.559 362.629)" fill="#118879" stroke="null" id="svg_3" d="m194.04726,333.73131c-4.86867,-21.46276 -13.09038,-41.97485 -21.60846,-62.20891c-7.679,-17.31758 -14.74724,-35.13566 -25.02045,-51.11842c-5.0065,-8.19786 -15.71941,-14.32667 -23.64,-6.12488c-8.94022,12.20836 -13.68364,26.98784 -20.56345,40.39424c-15.20005,33.33676 -30.954,66.45053 -44.81482,100.37426c23.694,-29.83043 47.1108,-60.07436 66.18273,-93.13545q3.03361,-5.41791 5.904,-10.92962c-0.11844,0.38258 -0.25889,0.94753 -0.43184,1.77452c-11.46921,42.91453 -17.13526,87.37165 -17.99711,131.75465c0.18527,43.69618 5.425,87.2244 12.14626,130.34566c10.54756,-66.74375 16.27388,-134.4987 11.98353,-202.04822c-0.99469,-18.91733 -2.66545,-37.794 -4.70122,-56.62594c-0.38782,-1.60681 -0.29873,-5.80781 -0.69074,-5.79287q1.88589,-3.63264 3.64993,-7.32423c1.86965,3.21625 3.69841,6.45793 5.57932,9.6637c13.16821,23.26113 28.07766,45.45629 43.41213,67.32967q5.71388,8.30255 11.28127,16.70441c-0.22561,-1.00858 -0.43734,-2.02372 -0.67108,-3.03257z"/>
 </g>
</svg>